<svg xmlns="http://www.w3.org/2000/svg" xmlns:xlink="http://www.w3.org/1999/xlink" version="1.1" viewBox="0 0 100.416 125.51249999999999" overflow="visible" enable-background="new 0 0 100.416 100.41" xml:space="preserve" x="0px" y="0px"><g><g><path d="M20.573,62.858c1.597-0.73,2.351-2.311,4.829-2.166c1.641-1.687,4.093-2.562,6.827-3.16    c0.713-3.064,1.047-6.501,2.663-8.661c-0.516-0.035-0.279-0.83-0.33-1.333c1.182-1.813,1.499-4.494,2.826-6.159    c0.29-1.765,0.736-3.372,1.667-4.496c-0.196-0.27,0.07-1.608-0.165-2.167c-0.922,0.828-2.626,2.368-3.832,1.833    c-0.183,0.803-0.855,1.344-1.499,1.83c-1.382,1.052-4.006,2.972-5.164,3.333c-0.312,0.315,0.103,0.298,0,0.831    c-2.251,1.575-3.319,4.339-4.992,6.493c-0.509,2.544-1.166,4.942-2.331,6.827C21.533,58.196,20.076,59.953,20.573,62.858z     M26.732,69.685c-1.613,0.472-3.97,0.621-4.829,2.332c0.198,0.847,0.741,1.5,0.333,2.496c1.315,0.409,1.608,1.835,2.664,2.501    c0.026-2.03,0.399-3.709,1.499-4.663C25.535,71.458,26.539,69.95,26.732,69.685z M55.21,51.202    c0.926-2.583-1.116-4.344-1.835-6.326c-0.653-1.802-1.119-3.575-1.999-4.662c-0.086-0.629-0.233-0.781,0.167-1.166    c-1.264-0.689-1.58-2.992-1.499-4.496c-0.475-0.803-1.614-0.942-1.332-2.498c-0.278,0-0.553,0-0.833,0    c-0.924,2.544-1.474,5.064-2.498,7.161c0.649,2.193-0.566,3.861-0.831,5.16c-0.158,0.774,0.578,1.592-0.336,1.997    c-0.017-0.202-0.048-0.392-0.33-0.33c-0.408,1.31-1.372,2.069-1,4.163c-0.878,0.478-0.818,1.027-0.666,2.331    c-0.825,0.496-1.749,2.314-1.166,3.161c0.218-0.396,0.54-0.684,0.998-0.83c2.922-0.412,5.678-0.985,7.995-1.998    c0.221,0,0.151,0.29,0.333,0.335C50.762,51.31,53.657,51.931,55.21,51.202z M70.359,53.534c-0.533,1.352-2.72,1.056-3.83,1.831    c0.873,1.271,2.273,2.794,1.665,4.996c0.874,0.456,1.371,1.299,1.331,2.662c0.932,0.987,1.467,3.273,0.834,4.832    c0.612,0.996,0.929,2.293,1.497,3.331c0.028,0.525-0.438,0.558-0.332,1.165c0.961,0.315,1.882,0.671,2.333,1.501    c0.656-0.616,1.088-1.504,0.498-2.502c1.185-1.812,1.737-4.258,2.664-6.327c0.271-3.013,0.576-6.298,1.001-9.491    c0.264-1.969-0.048-4.198-1.668-4.659c0.121,1.229-0.587,0.276-1.164,0.33c0.601,1.695-3.315,1.622-3.995,2.663    C70.875,53.794,70.891,53.388,70.359,53.534z M64.368,37.048c-2.245-0.425-3.804-1.525-5.33-2.663c-0.22,0-0.445,0-0.668,0    c-0.115,1.568,0.869,2.744,1.001,3.663c0.024,0.168-0.252,0.738-0.168,0.999c0.327,1.011,1.762,2.699,2.331,3.995    c0.481,1.092,0.933,1.355,1.164,2.331c0.198,0.819-0.45,1.63,0.334,2.331c1.559-0.763,4.08-0.714,5.162-1.333    c0.675-0.38,3.974-1.855,3.997-2.326c0.011-0.26-1.029-0.83-1.333-1.169C69.096,40.906,66.611,38.432,64.368,37.048z     M65.697,91.334c-1.388,0.692-4.52,2.697-6.161,2.995c-0.682,0.123-1.549-0.036-2.332,0c-2.842,0.134-5.94,0.678-8.327,0.333    c-2.148-0.312-5.418-0.13-7.157-1.33c-1.177,0.64-2.173-0.428-3.332-0.668c-1.81-0.371-4.281,0.028-4.663-1.665    c-0.623,0.263-2.471-0.98-2.498-1.832c-0.811,0.39-1.204-0.598-2.165-0.333c-1.792,3.388-2.589,7.405-4.33,10.491    c-0.942,0-1.885,0-2.831,0c-2.199-4.423,2.152-8.012,0.833-12.82c-0.288-1.056-1.64-1.615-2.831-2.664    c-0.679-0.6-0.869-1.369-1.331-1.834c-1.387-1.398-3.022-2.215-4-3.83c0-0.331,0-0.666,0-0.999    c-0.685-0.479-1.222-1.105-1.162-2.331c-0.523-0.145-1.71,0.385-1.502-0.487c-0.222,0.605-0.37,1.287-0.831,1.653    c-3.51,0.595-6.458,2.293-9.825,1.667c-0.083-1.089-0.607-2.035-0.167-3.167c2.223,0.005,2.541-1.898,4.663-1.997    c0.496-0.002,0.211-0.784,0.5-0.996c2.183-1.542,5.164-2.277,5.663-5.496c-0.028-0.463,0.257-0.574,0.5-0.335    c-0.884-2.458-2.909-7.649-0.5-9.824c-0.435-3.521,2.228-4.864,2.332-8.657c2.053-1.164,2.005-4.433,3.828-5.828    c-0.14-0.698,0.323-0.79,0.333-1.335c2.314-1.803,2.761-4.455,4.997-6.326c1.567-0.097,1.967-1.362,3.162-1.83    c0.04-0.569,0.421-0.799,0.333-1.502c2.075,0.108,3.137-4.029,4.997-2.496c0.292-0.654,1.757-1.011,2.496-0.664    c1.727-1.605,5.022-1.64,6.996-2.998c0.879-3.558,4.406-4.476,3.662-9.66c0.253-0.411,0.481-0.851,0.833-1.164    c0.198-4.17,0.242-8.659,2.165-11.492c0.222,0,0.445,0,0.667,0c0.306,0.425,0.669,0.971,0.165,1.333    c2.208,2.566,1.46,8.092,3.832,10.492c0,0.553,0,1.11,0,1.664c0.887,1.355,1.045,2.581,1.165,4.496    c0.038,0.461,0.528,0.473,0.666,0.834c0.054,0.609-0.142,1.472,0.167,1.83c1.477,1.112,4.048,0.171,5.659,0.501    c0.312,0.798,1.071,1.151,2.167,1.166c0.747,1.525,3.129,1.422,3.996,2.831c2.102,0.116,3.132,1.305,4.995,1.662    c0.042,1.125,1.104,1.23,1.832,1.665c0.021,1.815,1.76,1.905,2.166,3.332c0.665,0.093,0.5,0.093,1.164,0    c1.261,1.682,3.064,2.826,3.665,5.164c0.22,0.11,0.745,0.09,1.164,0c-0.066,0.398,0.305,0.361,0.167,0.831    c3.15,0.485,6.315,0.313,8.49-0.998c0.463,0.148,1.565-0.341,1.5,0.333c1.464-0.979,4.371-2.536,7.494-1.835    c0.271,0.62,0.14,1.64,0.164,2.5c-0.824,1.337-3.21,1.116-3.994,2.498c-4.246,1.137-5.467,5.3-9.49,6.661    c0.049,0.827-0.029,1.527-0.503,1.832c1.168,2.897,0.37,5.861,0.835,8.494c-0.205,0.404-0.446,0.774-0.835,0.995    c0.135,0.479,0.557,0.668,0.668,1.168c0.512,1.55-0.826,3.073-0.831,4.164c-0.003,0.425,0.475,0.893,0.5,1.495    c0.048,1.289-0.52,2.521-0.835,4c-0.194,0.139-0.445,0.219-0.832,0.167c0.156,1.599-0.427,2.459-1.164,3.162    c1.483,2.919-1.657,3.611-3.165,5.829c-0.259,0.378-0.283,0.853-0.5,1.163c-0.435,0.627-0.897,0.879-0.997,1.999    c0.686,0.575,0.678,2.706,0.166,3.499c0.205,0.458,0.991,0.34,0.998,0.997c0.062,0.508-0.604,0.285-0.668,0.666    c0.934,3.497,2.666,6.742,2.499,10.824c-3.875,1.41-4.017-3.174-6.327-3.331c-0.222-0.591-0.856-1.462-0.167-1.998    c-1.221-0.829-0.426-3.678-2.999-3.164c-0.238-0.367-0.418-0.801-0.329-1.496c-0.224-0.28-0.948-0.057-1.168-0.333    C69.249,90.155,67.386,90.487,65.697,91.334z M62.037,67.519c-1.875-2.583-0.604-7.84-4.496-8.657    c-2.318,0.924-5.715,1.029-6.829,1.83c-0.208-0.909-0.553,0.172-1-0.5c0.181,1.096-0.536,0.418-1.164,0.5    c0.017,0.416,0.31,0.517,0,0.834c-2.063,0.883-5.52,0.365-7.329,1.497c-0.723,0.885-1.582,1.637-2.831,2c0,0.331,0,0.666,0,1.001    c-2.301,3.08-3.632,7.132-4.996,11.154c0.854,1.147-0.599,2.231-0.331,3.83c1.31,1.969,4.82,1.729,6.161,3.663    c0.145-0.907,0.818,0.182,1.497-0.499c1.016,1.205,3.385,1.054,4.33,2.333c2.972-0.767,6.491,1.653,8.49-0.168    c0.028,0.249-0.058,0.615,0.17,0.667c0.236-1.094,2.568-0.095,2.829-1.169c0.625-0.175,0.475,0.415,1.003,0.337    c0.73-1.211,2.714-1.006,4.159-1.499c0.873-0.301,1.837-1.069,2.668-1.668c0.775-0.562,2.396-1.275,2.496-1.997    c0.16-1.171-2.72-3.528-1.835-5.828C63.546,73.116,62.258,70.851,62.037,67.519z"/></g></g><!-- Created by Mike Jewett from the Noun Project --></svg>